<svg id="Layer_1" enable-background="new 0 0 512 512" height="512" viewBox="0 0 512 512" width="512" xmlns="http://www.w3.org/2000/svg"><g><g clip-rule="evenodd" fill-rule="evenodd"><path d="m160.684 341.076c5.081-5.764 10.317-11.175 15.656-16.207 8.005 6.366 18.95 8.724 29.406 5.327 6.59-2.141 11.994-6.247 15.772-11.459l4.481 3.256 4.48 3.255c-3.788 5.205-6.023 11.613-6.023 18.542 0 10.994 5.624 20.674 14.154 26.318-3.137 6.634-6.665 13.286-10.577 19.9-4.07 6.88-8.556 13.72-13.452 20.459-32.483 44.71-74.759 73.633-110.617 79.492-5.508-35.913 8.935-85.057 41.419-129.768 4.896-6.738 10.015-13.118 15.301-19.115z" fill="#fff3db"/><path d="m176.341 324.867c-5.34 5.034-10.576 10.444-15.658 16.208-3.22 1.267-6.522 2.453-9.899 3.549-34.761 11.294-68.623 10.336-90.086-.468 11.014-21.356 37.845-42.036 72.606-53.33 3.377-1.098 6.745-2.078 10.094-2.947 7.5 1.677 14.916 2.977 22.192 3.909-1.599 5.762-1.579 12.042.406 18.154 1.988 6.114 5.664 11.206 10.345 14.925z" fill="#ffe6b4"/><path d="m165.594 291.79c-7.279-.933-14.695-2.233-22.195-3.91-7.801-1.745-15.693-3.898-23.615-6.471-52.559-17.078-93.131-48.348-109.784-80.64 32.453-16.336 83.656-17.786 136.215-.708 7.922 2.574 15.572 5.471 22.909 8.645 7.053 3.051 13.816 6.359 20.252 9.882-3.581 9.581-2.441 20.719 4.021 29.613 4.073 5.606 9.648 9.477 15.772 11.459l-1.712 5.268-1.711 5.266c-6.121-1.994-12.905-2.139-19.496.002-10.455 3.397-17.924 11.737-20.656 21.594z" fill="#fff3db"/><path d="m189.378 218.588c-6.438-3.524-13.201-6.831-20.254-9.882-2.199-2.671-4.348-5.445-6.435-8.318-21.483-29.569-31.035-62.071-27.392-85.822 23.714 3.875 51.674 23.003 73.156 52.572 2.087 2.872 4.061 5.773 5.922 8.69.723 7.651 1.778 15.105 3.141 22.314-5.974.26-11.941 2.219-17.14 5.997-5.2 3.778-8.906 8.847-10.998 14.449z" fill="#ffe6b4"/><path d="m214.375 175.829c-.751-7.958-1.142-16.129-1.142-24.459 0-55.265 17.202-103.513 42.767-129.33 25.565 25.817 42.767 74.065 42.767 129.33 0 8.33-.391 16.501-1.143 24.459-.722 7.651-1.778 15.105-3.14 22.314-10.218-.445-20.458 4.081-26.921 12.975-4.073 5.606-6.032 12.104-6.024 18.541h-5.539-5.537c.005-6.437-1.953-12.935-6.026-18.541-6.462-8.894-16.702-13.42-26.921-12.975-1.362-7.209-2.418-14.664-3.141-22.314z" fill="#fff3db"/><path d="m303.546 167.139c21.483-29.569 49.442-48.697 73.156-52.572 3.643 23.751-5.909 56.253-27.392 85.822-2.087 2.873-4.235 5.646-6.435 8.318-7.053 3.051-13.816 6.359-20.252 9.882-2.094-5.601-5.8-10.67-11-14.448-5.199-3.778-11.166-5.737-17.14-5.995 1.362-7.212 2.418-14.666 3.14-22.317 1.862-2.917 3.836-5.818 5.923-8.69z" fill="#ffe6b4"/><path d="m365.784 200.061c52.56-17.077 103.762-15.628 136.216.709-16.653 32.292-57.224 63.561-109.784 80.639-7.922 2.574-15.814 4.727-23.615 6.471-7.499 1.677-14.916 2.976-22.193 3.909-2.735-9.856-10.203-18.196-20.659-21.594-6.591-2.141-13.375-1.996-19.495 0l-1.712-5.269-1.711-5.266c6.124-1.984 11.698-5.855 15.771-11.461 6.462-8.894 7.602-20.032 4.019-29.612 6.438-3.524 13.201-6.832 20.254-9.883 7.337-3.172 14.987-6.069 22.909-8.643z" fill="#fff3db"/><path d="m378.695 290.827c34.761 11.294 61.592 31.974 72.606 53.33-21.463 10.805-55.326 11.763-90.086.469-3.377-1.097-6.679-2.283-9.899-3.55-5.081-5.765-10.317-11.175-15.656-16.207 4.68-3.721 8.356-8.813 10.342-14.926s2.005-12.392.405-18.153c7.279-.934 14.695-2.233 22.195-3.91 3.348.868 6.716 1.849 10.093 2.947z" fill="#ffe6b4"/><path d="m351.316 341.076c5.286 5.997 10.405 12.377 15.301 19.117 32.484 44.71 46.927 93.854 41.419 129.768-35.858-5.859-78.134-34.783-110.617-79.492-4.896-6.739-9.382-13.579-13.452-20.459-3.912-6.614-7.439-13.266-10.576-19.898 8.528-5.647 14.153-15.327 14.153-26.321 0-6.93-2.235-13.338-6.024-18.541l4.482-3.256 4.48-3.255c3.78 5.211 9.183 9.316 15.774 11.458 10.456 3.397 21.4 1.039 29.406-5.327 5.337 5.031 10.573 10.441 15.654 16.206z" fill="#fff3db"/><path d="m284.284 400.52c0 36.549-11.376 68.458-28.283 85.532-16.908-17.074-28.284-48.983-28.284-85.532 0-3.551.108-7.058.317-10.512 3.912-6.614 7.44-13.266 10.575-19.898 4.986 3.301 10.964 5.223 17.392 5.223 6.427 0 12.405-1.922 17.39-5.225 3.137 6.635 6.665 13.286 10.577 19.9.208 3.454.316 6.961.316 10.512z" fill="#ffe6b4"/><g fill="#ff9346"><path d="m273.391 370.11c-4.986 3.301-10.964 5.223-17.391 5.223s-12.406-1.922-17.392-5.223c-8.528-5.647-14.152-15.327-14.152-26.32 0-6.93 2.235-13.338 6.023-18.542 5.735-7.88 15.03-13.001 25.521-13.001s19.786 5.122 25.521 13.001c3.788 5.205 6.023 11.613 6.023 18.542 0 10.993-5.625 20.674-14.153 26.32z"/><path d="m221.519 318.738c-3.779 5.211-9.183 9.316-15.773 11.458-10.456 3.397-21.401 1.039-29.406-5.327-4.68-3.721-8.356-8.813-10.342-14.926s-2.005-12.393-.406-18.154c2.735-9.856 10.203-18.196 20.659-21.593 6.591-2.141 13.375-1.996 19.496-.002 9.266 3.019 17.009 10.277 20.252 20.254 3.241 9.978 1.242 20.401-4.48 28.29z"/><path d="m237.458 255.178c-8.488 6.167-19.018 7.486-28.289 4.483-6.124-1.984-11.698-5.855-15.771-11.461-6.462-8.894-7.602-20.032-4.021-29.613 2.093-5.601 5.8-10.67 11-14.448s11.166-5.737 17.14-5.997c10.218-.445 20.458 4.081 26.921 12.975 4.073 5.606 6.032 12.104 6.026 18.541-.009 9.747-4.519 19.354-13.006 25.52z"/></g><path d="m209.168 259.661c9.271 3.004 19.801 1.684 28.289-4.483s12.997-15.774 13.003-25.52h5.54 5.537c.008 9.746 4.517 19.353 13.005 25.52s19.018 7.486 28.289 4.48l1.712 5.268 1.711 5.266c-9.266 3.019-17.009 10.277-20.252 20.254-3.242 9.978-1.243 20.401 4.481 28.289l-4.482 3.256-4.48 3.254c-5.735-7.88-15.03-13.001-25.521-13.001s-19.786 5.122-25.52 13.003l-4.481-3.256-4.48-3.254c5.722-7.889 7.721-18.312 4.479-28.29s-10.986-17.235-20.253-20.252l1.712-5.268z" fill="#ffbe90"/><path d="m274.542 255.178c-8.488-6.167-12.997-15.774-13.005-25.52-.005-6.437 1.953-12.935 6.026-18.541 6.462-8.894 16.702-13.42 26.921-12.975 5.974.26 11.94 2.219 17.14 5.997s8.906 8.847 11 14.448c3.58 9.581 2.441 20.718-4.021 29.612-4.073 5.606-9.647 9.477-15.771 11.461-9.272 3.005-19.802 1.685-28.29-4.482z" fill="#ff9346"/><path d="m286.002 290.448c3.242-9.978 10.986-17.235 20.252-20.254 6.121-1.994 12.905-2.139 19.496.002 10.456 3.397 17.924 11.738 20.659 21.594 1.599 5.762 1.58 12.041-.406 18.154s-5.662 11.204-10.342 14.926c-8.006 6.366-18.95 8.724-29.406 5.327-6.59-2.141-11.994-6.247-15.774-11.458-5.722-7.89-7.721-18.313-4.479-28.291z" fill="#ff9346"/></g><g><path d="m511.511 197.679c-.825-2.539-2.63-4.642-5.015-5.842-34.939-17.588-86.063-18.682-137.782-3.16 14.701-26.055 21.297-53.3 17.873-75.627-.404-2.638-1.847-5.005-4.006-6.574-2.16-1.568-4.856-2.211-7.491-1.779-22.292 3.642-46.165 18.336-66.402 40.368-1.22-53.984-18.058-102.267-45.582-130.062-1.878-1.896-4.437-2.963-7.105-2.963-2.669 0-5.228 1.067-7.105 2.963-27.524 27.794-44.363 76.077-45.583 130.062-20.236-22.033-44.11-36.726-66.403-40.368-2.635-.431-5.332.21-7.491 1.779s-3.602 3.936-4.006 6.574c-3.424 22.326 3.172 49.572 17.873 75.626-51.718-15.521-102.841-14.428-137.781 3.16-2.384 1.2-4.189 3.303-5.015 5.842-.825 2.539-.601 5.302.623 7.674 17.929 34.766 58.645 65.701 109.61 83.543-27.208 12.438-48.559 30.603-58.911 50.679-1.223 2.372-1.447 5.135-.623 7.673.825 2.539 2.63 4.642 5.015 5.842 12.759 6.422 28.623 9.642 45.981 9.642 10.091 0 20.687-1.092 31.468-3.273-30.745 44.392-45.503 93.352-39.573 132.017.404 2.638 1.847 5.005 4.006 6.574 1.72 1.249 3.78 1.91 5.878 1.91.537 0 1.076-.043 1.613-.131 38.604-6.308 80.607-35.472 113.326-78.429 3.421 29.719 14.099 55.639 29.993 71.689 1.878 1.897 4.437 2.964 7.105 2.964 2.669 0 5.228-1.067 7.106-2.964 15.893-16.05 26.57-41.969 29.992-71.688 32.719 42.957 74.721 72.121 113.325 78.429.537.088 1.076.131 1.613.131 2.098 0 4.158-.661 5.878-1.91 2.159-1.569 3.602-3.936 4.006-6.574 5.931-38.665-8.827-87.625-39.572-132.017 10.78 2.18 21.375 3.272 31.467 3.272 17.355 0 33.225-3.22 45.982-9.642 2.384-1.2 4.189-3.303 5.015-5.842.825-2.539.601-5.301-.623-7.674-10.352-20.076-31.704-38.24-58.911-50.678 50.965-17.842 91.681-48.777 109.61-83.543 1.222-2.371 1.447-5.134.622-7.673zm-305.257 14.551c3.721-2.704 8.105-4.12 12.618-4.12 1.133 0 2.275.089 3.416.27 5.684.9 10.676 3.96 14.059 8.615 6.982 9.61 4.844 23.11-4.766 30.092-9.61 6.983-23.11 4.844-30.092-4.766-6.983-9.609-4.845-23.108 4.765-30.091zm49.746 36.12c2.88 5.738 7.122 10.893 12.664 14.919 5.43 3.945 11.592 6.465 18.04 7.459-4.63 4.593-8.139 10.248-10.213 16.63-2.078 6.395-2.561 13.048-1.506 19.498-5.695-2.939-12.147-4.611-18.985-4.611-6.839 0-13.291 1.671-18.986 4.611 1.055-6.451.572-13.103-1.506-19.499-2.077-6.391-5.593-12.053-10.234-16.651 6.333-.97 12.531-3.421 18.061-7.438 5.543-4.026 9.785-9.181 12.665-14.918zm33.713-39.969c1.142-.181 2.282-.27 3.416-.27 4.512 0 8.896 1.416 12.617 4.119 9.611 6.982 11.749 20.481 4.766 30.092-3.382 4.655-8.375 7.715-14.059 8.615s-11.377-.468-16.033-3.85c-9.611-6.982-11.749-20.482-4.767-30.092 3.383-4.655 8.376-7.714 14.06-8.614zm-114.204 98.472c-3.671-11.297 2.534-23.476 13.832-27.146 2.204-.716 4.441-1.057 6.642-1.057 9.083 0 17.55 5.794 20.504 14.889 1.778 5.473 1.319 11.311-1.293 16.438-2.613 5.127-7.065 8.93-12.539 10.708-11.295 3.671-23.475-2.534-27.146-13.832zm58.948 36.936c0-11.879 9.665-21.544 21.544-21.544s21.544 9.665 21.544 21.544-9.665 21.544-21.544 21.544c-11.88 0-21.544-9.664-21.544-21.544zm61.056-50.251c2.955-9.095 11.421-14.889 20.504-14.889 2.201 0 4.439.341 6.642 1.057 11.298 3.671 17.503 15.849 13.832 27.146-3.671 11.298-15.85 17.501-27.146 13.832-11.298-3.67-17.503-15.848-13.832-27.146zm71.925-166.22c-.656 20.372-10.147 45.073-26.217 67.192-1.491 2.052-3.055 4.071-4.641 6.055-3.352 1.489-6.655 3.042-9.908 4.656-2.495-3.435-5.554-6.545-9.17-9.172-3.575-2.598-7.471-4.568-11.554-5.902.529-3.587.984-7.203 1.364-10.846 1.395-2.121 2.833-4.231 4.325-6.285 16.07-22.118 36.629-38.778 55.801-45.698zm-111.437-90.132c20.397 26.153 32.767 68.654 32.767 114.184 0 12.709-.959 25.246-2.829 37.375-7.481 1.304-14.316 4.554-19.938 9.404v-31.725c0-5.523-4.477-10-10-10s-10 4.477-10 10v31.725c-5.622-4.851-12.457-8.101-19.938-9.404-1.871-12.129-2.828-24.666-2.828-37.375-.001-45.53 12.368-88.031 32.766-114.184zm-55.637 135.83c1.491 2.053 2.928 4.163 4.325 6.285.38 3.643.835 7.26 1.364 10.846-4.083 1.334-7.979 3.304-11.554 5.901-3.616 2.627-6.675 5.737-9.17 9.171-3.252-1.614-6.556-3.167-9.908-4.656-1.584-1.98-3.147-3.998-4.641-6.055-16.07-22.118-25.562-46.82-26.218-67.192 19.172 6.922 39.732 23.582 55.802 45.7zm-175.959 32.433c31.177-11.313 75.423-9.946 118.721 4.122 12.092 3.929 23.726 8.718 34.69 14.249-1.036 7.288-.152 14.85 2.781 21.864l-34.943-11.354c-5.251-1.704-10.894 1.168-12.601 6.42-1.707 5.253 1.168 10.894 6.42 12.601l34.943 11.354c-6.496 3.951-11.656 9.549-15.102 16.054-12.119-1.969-24.345-4.933-36.44-8.863-43.3-14.067-79.899-38.965-98.469-66.447zm51.285 133.837c12.505-16.096 34.703-30.5 60.705-38.949 2.411-.784 4.863-1.499 7.314-2.171 3.587.766 7.172 1.451 10.752 2.057 0 4.245.647 8.559 2.028 12.81 1.366 4.203 3.36 8.087 5.879 11.566-2.536 2.591-5.03 5.249-7.479 7.973-2.375.896-4.777 1.758-7.193 2.543-26.003 8.448-52.428 9.843-72.006 4.171zm37.176 138.42c-1.129-33.148 13.845-74.802 40.607-111.636 7.471-10.284 15.616-19.863 24.26-28.577 5.764 2.825 11.968 4.267 18.221 4.267 1.142 0 2.286-.051 3.428-.146l-21.581 29.703c-3.246 4.468-2.256 10.722 2.212 13.968 1.775 1.29 3.832 1.911 5.87 1.911 3.092 0 6.142-1.43 8.099-4.123l21.596-29.724c1.75 7.399 5.479 14.036 10.602 19.324-5.617 10.917-12.214 21.629-19.69 31.918-26.761 36.832-61.749 63.946-93.624 73.115zm143.135-7.417c-11.444-16.867-18.284-42.43-18.284-69.77 0-2.534.078-5.086.195-7.626 1.837-3.176 3.596-6.373 5.279-9.591 4.038 1.312 8.341 2.03 12.81 2.03s8.772-.718 12.809-2.03c1.682 3.217 3.442 6.415 5.279 9.59.118 2.534.195 5.085.195 7.626 0 27.341-6.84 52.904-18.283 69.771zm143.132 7.418c-31.873-9.171-66.864-36.285-93.624-73.117-7.475-10.288-14.072-21.001-19.689-31.918 5.122-5.287 8.852-11.924 10.602-19.323l21.595 29.723c1.957 2.693 5.006 4.123 8.099 4.123 2.038 0 4.095-.621 5.87-1.911 4.468-3.247 5.458-9.5 2.212-13.968l-21.581-29.703c1.143.095 2.286.146 3.428.146 6.252 0 12.459-1.442 18.222-4.267 8.643 8.713 16.788 18.294 24.259 28.577 26.763 36.835 41.737 78.49 40.607 111.638zm37.178-138.421c-19.579 5.671-46.005 4.278-72.005-4.171-2.412-.784-4.815-1.646-7.193-2.543-2.449-2.724-4.943-5.382-7.479-7.973 2.519-3.479 4.513-7.363 5.879-11.566 1.381-4.251 2.028-8.565 2.028-12.81 3.58-.606 7.165-1.291 10.752-2.057 2.449.672 4.899 1.386 7.314 2.171 26.001 8.449 48.199 22.854 60.704 38.949zm-47.185-67.388c-12.093 3.93-24.319 6.893-36.44 8.863-3.445-6.505-8.606-12.103-15.101-16.054l34.943-11.354c5.252-1.707 8.127-7.348 6.42-12.601-1.707-5.252-7.347-8.127-12.601-6.42l-34.943 11.354c2.933-7.014 3.817-14.576 2.781-21.865 10.961-5.531 22.596-10.319 34.691-14.248 43.3-14.07 87.543-15.44 118.72-4.122-18.572 27.478-55.173 52.378-98.47 66.447z"/><path d="m256 131.424c5.523 0 10-4.477 10-10s-4.477-10-10-10h-.007c-5.523 0-9.996 4.477-9.996 10s4.48 10 10.003 10z"/></g></g></svg>